<svg width="13" height="13" viewBox="0 0 13 13" fill="none" xmlns="http://www.w3.org/2000/svg">
<path d="M4.75 7.09375L6.15625 8.5L8.5 5.21875M12.25 6.625C12.25 7.36369 12.1045 8.09514 11.8218 8.77759C11.5391 9.46005 11.1248 10.0801 10.6025 10.6025C10.0801 11.1248 9.46005 11.5391 8.77759 11.8218C8.09514 12.1045 7.36369 12.25 6.625 12.25C5.88631 12.25 5.15486 12.1045 4.47241 11.8218C3.78995 11.5391 3.16985 11.1248 2.64752 10.6025C2.12519 10.0801 1.71086 9.46005 1.42818 8.77759C1.14549 8.09514 1 7.36369 1 6.625C1 5.13316 1.59263 3.70242 2.64752 2.64752C3.70242 1.59263 5.13316 1 6.625 1C8.11684 1 9.54758 1.59263 10.6025 2.64752C11.6574 3.70242 12.25 5.13316 12.25 6.625Z" stroke="#09BF10" stroke-width="0.9375" stroke-linecap="round" stroke-linejoin="round"/>
</svg>
