<svg width="15" height="13" viewBox="0 0 15 13" fill="none" xmlns="http://www.w3.org/2000/svg">
<path d="M14 2.65V10.35C14 10.7876 13.842 11.2073 13.5607 11.5167C13.2794 11.8262 12.8978 12 12.5 12H2.5C2.10218 12 1.72064 11.8262 1.43934 11.5167C1.15804 11.2073 1 10.7876 1 10.35V2.65M14 2.65C14 2.21239 13.842 1.79271 13.5607 1.48327C13.2794 1.17384 12.8978 1 12.5 1H2.5C2.10218 1 1.72064 1.17384 1.43934 1.48327C1.15804 1.79271 1 2.21239 1 2.65M14 2.65V2.8282C14 3.10991 13.9345 3.38693 13.8096 3.63288C13.6848 3.87884 13.5047 4.08553 13.2867 4.23327L8.28667 7.6176C8.05014 7.77786 7.7778 7.86272 7.5 7.86272C7.2222 7.86272 6.94986 7.77786 6.71333 7.6176L1.71333 4.234C1.49528 4.08626 1.31525 3.87957 1.19038 3.63362C1.06551 3.38766 0.999972 3.11064 1 2.82893V2.65" stroke="#D3D3D3" stroke-linecap="round" stroke-linejoin="round"/>
</svg>
