<svg width="16" height="16" viewBox="0 0 16 16" fill="none" xmlns="http://www.w3.org/2000/svg">
<path d="M9.02702 5.30667C9.48047 5.52316 9.87534 5.84532 10.1785 6.24607C10.4816 6.64682 10.6841 7.11447 10.769 7.60972C10.8539 8.10498 10.8188 8.61338 10.6664 9.09222C10.5141 9.57106 10.2491 10.0063 9.89369 10.3615L6.75359 13.5016C6.1647 14.0905 5.366 14.4214 4.53319 14.4214C3.70038 14.4214 2.90167 14.0905 2.31279 13.5016C1.7239 12.9127 1.39307 12.114 1.39307 11.2812C1.39307 10.4484 1.7239 9.64972 2.31279 9.06083L3.53882 7.8348M12.8545 7.40077L14.0805 6.17473C14.6694 5.58584 15.0002 4.78714 15.0002 3.95433C15.0002 3.12152 14.6694 2.32282 14.0805 1.73393C13.4916 1.14504 12.6929 0.814209 11.8601 0.814209C11.0273 0.814209 10.2286 1.14504 9.63969 1.73393L6.49959 4.87403C6.14415 5.22921 5.87915 5.66451 5.72683 6.14334C5.57451 6.62218 5.53933 7.13058 5.62425 7.62584C5.70916 8.12109 5.91168 8.58874 6.21481 8.98949C6.51793 9.39024 6.91281 9.7124 7.36626 9.9289" stroke="#D3D3D3" stroke-width="1.29268" stroke-linecap="round" stroke-linejoin="round"/>
</svg>
