<svg width="12" height="11" viewBox="0 0 12 11" fill="none" xmlns="http://www.w3.org/2000/svg">
<path d="M8.38296 4.1705H11.2095L9.40838 2.36822C8.82851 1.78834 8.10619 1.37133 7.31405 1.15911C6.52191 0.946901 5.68786 0.946963 4.89575 1.15929C4.10364 1.37162 3.38139 1.78874 2.8016 2.36871C2.22181 2.94868 1.80492 3.67106 1.59283 4.46324M1.00057 10.0003V7.17374M1.00057 7.17374H3.82714M1.00057 7.17374L2.80115 8.97602C3.38103 9.5559 4.10334 9.97291 4.89548 10.1851C5.68762 10.3973 6.52167 10.3973 7.31378 10.1849C8.10589 9.97261 8.82814 9.5555 9.40793 8.97553C9.98772 8.39556 10.4046 7.67318 10.6167 6.881M11.2095 1.34393V4.16937" stroke="#1E75FF" stroke-width="1.2" stroke-linecap="round" stroke-linejoin="round"/>
</svg>
