<svg width="19" height="15" viewBox="0 0 19 15" fill="none" xmlns="http://www.w3.org/2000/svg">
<path d="M15.459 7.16418C15.459 6.12109 15.4213 5.0873 15.3458 4.06368C15.2877 3.25269 14.9491 2.49022 14.3917 1.91521C13.8343 1.34019 13.0951 0.990905 12.309 0.930998C10.3081 0.775279 8.2987 0.775279 6.29782 0.930998C5.51167 0.990905 4.77254 1.34019 4.21513 1.91521C3.65772 2.49022 3.31913 3.25269 3.26105 4.06368C3.2471 4.24994 3.23479 4.43706 3.2233 4.62417M15.459 7.16418L17.9213 4.62417M15.459 7.16418L12.9968 4.62417M3.14779 7.16418C3.14779 8.20728 3.18555 9.24106 3.26105 10.2647C3.31913 11.0757 3.65772 11.8381 4.21513 12.4132C4.77254 12.9882 5.51167 13.3375 6.29782 13.3974C8.2987 13.5532 10.3081 13.5532 12.309 13.3974C13.0951 13.3375 13.8343 12.9882 14.3917 12.4132C14.9491 11.8381 15.2877 11.0757 15.3458 10.2647C15.3597 10.0784 15.372 9.89131 15.3835 9.70419M3.14779 7.16418L5.61004 9.70419M3.14779 7.16418L0.685547 9.70419" stroke="#D3D3D3" stroke-width="1.17929" stroke-linecap="round" stroke-linejoin="round"/>
</svg>
