<svg width="26" height="26" viewBox="0 0 26 26" fill="none" xmlns="http://www.w3.org/2000/svg">
<ellipse cx="12.9985" cy="12.5923" rx="12.9985" ry="12.5923" fill="#FF1DB2" fill-opacity="0.73"/>
<path d="M10.0173 6.24455C10.3629 6.24455 10.651 6.33761 10.8814 6.52373C11.1118 6.70098 11.3024 6.92698 11.4531 7.20172C11.6126 7.4676 11.7455 7.76006 11.8519 8.07912C11.9582 8.38931 12.0557 8.68178 12.1443 8.95652C12.2418 9.2224 12.3393 9.4484 12.4368 9.63451C12.5343 9.81176 12.6584 9.90039 12.809 9.90039C12.9243 9.90039 13.035 9.81176 13.1414 9.63451C13.2477 9.45726 13.3585 9.23569 13.4737 8.96981C13.5889 8.69507 13.7175 8.40261 13.8593 8.09241C14.0011 7.77336 14.165 7.48089 14.3511 7.21501C14.5461 6.94027 14.7677 6.71427 15.0158 6.53702C15.2729 6.35977 15.5742 6.27114 15.9198 6.27114C16.2566 6.27114 16.5358 6.33761 16.7573 6.47055C16.9789 6.59463 17.1517 6.77631 17.2758 7.0156C17.3999 7.25489 17.4841 7.55179 17.5284 7.9063C17.5816 8.25194 17.6082 8.64633 17.6082 9.08946C17.6082 9.39079 17.6658 9.74973 17.781 10.1663C17.9051 10.574 18.038 11.0171 18.1798 11.4957C18.3216 11.9742 18.4501 12.4794 18.5653 13.0112C18.6894 13.5429 18.7514 14.0791 18.7514 14.6197C18.7514 15.3465 18.6894 15.9536 18.5653 16.441C18.4412 16.9285 18.2684 17.3184 18.0469 17.6109C17.8342 17.9122 17.5771 18.1249 17.2758 18.249C16.9833 18.3731 16.6599 18.4351 16.3053 18.4351C15.942 18.4351 15.6052 18.3731 15.295 18.249C14.9937 18.1249 14.7322 17.9521 14.5107 17.7305C14.298 17.509 14.1296 17.2431 14.0055 16.9329C13.8903 16.6227 13.8327 16.2771 13.8327 15.896C13.8327 15.3819 13.877 14.9565 13.9656 14.6197C14.0542 14.283 14.1517 13.9816 14.2581 13.7158C14.3733 13.441 14.4752 13.1751 14.5638 12.9181C14.6525 12.6611 14.6968 12.3509 14.6968 11.9875C14.6968 11.7837 14.6613 11.6242 14.5904 11.509C14.5284 11.3937 14.4442 11.3361 14.3378 11.3361C14.2404 11.3361 14.1562 11.4115 14.0853 11.5621C14.0232 11.7128 13.9656 11.9033 13.9124 12.1338C13.8593 12.3553 13.8061 12.5991 13.7529 12.8649C13.6997 13.1308 13.6288 13.379 13.5402 13.6094C13.4604 13.831 13.3541 14.0171 13.2212 14.1678C13.0971 14.3184 12.9375 14.3937 12.7426 14.3937C12.5476 14.3937 12.3836 14.3184 12.2507 14.1678C12.1178 14.0171 12.0025 13.831 11.905 13.6094C11.8076 13.379 11.7234 13.1308 11.6525 12.8649C11.5904 12.5991 11.5284 12.3553 11.4663 12.1338C11.4132 11.9033 11.36 11.7128 11.3068 11.5621C11.2536 11.4115 11.1916 11.3361 11.1207 11.3361C11.0321 11.3361 10.9567 11.376 10.8947 11.4558C10.8415 11.5355 10.7972 11.633 10.7618 11.7483C10.7352 11.8635 10.7175 11.9875 10.7086 12.1205C10.6997 12.2534 10.6953 12.3686 10.6953 12.4661C10.6953 12.8206 10.7573 13.1441 10.8814 13.4366C11.0055 13.7202 11.1429 13.9994 11.2935 14.2741C11.4531 14.5488 11.5949 14.828 11.7189 15.1116C11.843 15.3864 11.905 15.6966 11.905 16.0422C11.905 16.3878 11.8607 16.7202 11.7721 17.0392C11.6835 17.3672 11.524 17.6508 11.2935 17.8901C11.072 18.1382 10.7662 18.3376 10.3762 18.4883C9.98629 18.639 9.49441 18.7143 8.90061 18.7143C8.51952 18.7143 8.18717 18.6257 7.90357 18.4484C7.62883 18.2712 7.40283 18.0496 7.22558 17.7837C7.05719 17.5178 6.92868 17.2298 6.84005 16.9196C6.76029 16.6094 6.72041 16.3169 6.72041 16.0422C6.72041 15.3952 6.76915 14.7748 6.86664 14.181C6.97299 13.5784 7.0882 12.9757 7.21228 12.3731C7.33636 11.7704 7.44714 11.1545 7.54463 10.5252C7.65098 9.8871 7.70416 9.20911 7.70416 8.49123C7.70416 8.17218 7.7529 7.87971 7.85039 7.61383C7.95674 7.33909 8.10741 7.0998 8.30239 6.89596C8.49736 6.69212 8.73666 6.53259 9.02026 6.41737C9.31273 6.30216 9.64508 6.24455 10.0173 6.24455Z" fill="white"/>
</svg>
