<svg width="17" height="17" viewBox="0 0 17 17" fill="none" xmlns="http://www.w3.org/2000/svg">
<path d="M15.5143 5.87343V6.5585C15.5143 6.86567 15.4324 7.16712 15.2774 7.43085C15.1224 7.69458 14.9 7.91075 14.6338 8.05642L9.81203 10.6939M1 5.87343V6.5585C0.999988 6.86567 1.08184 7.16712 1.23687 7.43085C1.3919 7.69458 1.61432 7.91075 1.88053 8.05642L6.70225 10.6939M6.70225 10.6939L7.46295 10.278C7.70702 10.1444 7.97992 10.0745 8.25714 10.0745C8.53437 10.0745 8.80726 10.1444 9.05134 10.278L9.81278 10.6939L13.2813 12.5918M6.70225 10.6939L3.23297 12.5918M15.5143 13.813C15.5143 14.2642 15.3378 14.6969 15.0238 15.016C14.7097 15.335 14.2837 15.5143 13.8396 15.5143H2.67473C2.23056 15.5143 1.80459 15.335 1.49052 15.016C1.17644 14.6969 1 14.2642 1 13.813V5.75547C0.999988 5.44829 1.08184 5.14684 1.23687 4.88311C1.3919 4.61938 1.61432 4.40321 1.88053 4.25754L7.46295 1.20347C7.70702 1.06991 7.97992 1 8.25714 1C8.53437 1 8.80726 1.06991 9.05134 1.20347L14.6338 4.25754C14.8999 4.40315 15.1222 4.6192 15.2772 4.88279C15.4322 5.14637 15.5142 5.44766 15.5143 5.75471V13.813Z" stroke="#D3D3D3" stroke-width="1.20511" stroke-linecap="round" stroke-linejoin="round"/>
</svg>
