<svg width="13" height="13" viewBox="0 0 13 13" fill="none" xmlns="http://www.w3.org/2000/svg">
<path d="M8.44456 8.44456C8.18919 8.69992 7.88603 8.90249 7.55239 9.04069C7.21874 9.17889 6.86114 9.25002 6.5 9.25002C6.13886 9.25002 5.78126 9.17889 5.44761 9.04069C5.11397 8.90249 4.81081 8.69992 4.55544 8.44456M12 6.5C12 7.22227 11.8577 7.93747 11.5813 8.60476C11.3049 9.27205 10.8998 9.87836 10.3891 10.3891C9.87836 10.8998 9.27205 11.3049 8.60476 11.5813C7.93747 11.8577 7.22227 12 6.5 12C5.77773 12 5.06253 11.8577 4.39524 11.5813C3.72795 11.3049 3.12163 10.8998 2.61091 10.3891C2.10019 9.87836 1.69506 9.27205 1.41866 8.60476C1.14226 7.93747 1 7.22227 1 6.5C1 5.04131 1.57946 3.64236 2.61091 2.61091C3.64236 1.57946 5.04131 1 6.5 1C7.95869 1 9.35764 1.57946 10.3891 2.61091C11.4205 3.64236 12 5.04131 12 6.5ZM5.125 5.125C5.125 5.378 5.02233 5.58333 4.89583 5.58333C4.76933 5.58333 4.66667 5.378 4.66667 5.125C4.66667 4.872 4.76933 4.66667 4.89583 4.66667C5.02233 4.66667 5.125 4.872 5.125 5.125ZM4.89583 5.125H4.90072V5.13417H4.89583V5.125ZM8.33333 5.125C8.33333 5.378 8.23067 5.58333 8.10417 5.58333C7.97767 5.58333 7.875 5.378 7.875 5.125C7.875 4.872 7.97767 4.66667 8.10417 4.66667C8.23067 4.66667 8.33333 4.872 8.33333 5.125ZM8.10417 5.125H8.10906V5.13417H8.10417V5.125Z" stroke="#FF80D4" stroke-opacity="0.73" stroke-width="0.916667" stroke-linecap="round" stroke-linejoin="round"/>
</svg>
